<svg data-v-fde0c5aa="" xmlns="http://www.w3.org/2000/svg" viewBox="0 0 300 300" class="iconLeft"><!----><defs data-v-fde0c5aa=""><!----></defs><rect data-v-fde0c5aa="" fill="transparent" x="0" y="0" width="300px" height="300px" class="logo-background-square"></rect><defs data-v-fde0c5aa=""><!----></defs><g data-v-fde0c5aa="" id="69cfb3b3-910d-48c7-856d-5e1124b04b18" fill="#000000" transform="matrix(1.6775768788257914,0,0,1.6775768788257914,108.27993678388356,135.49734791454827)"><path d="M0.59 8.99L0.59 8.99L0.59 8.99Q0.59 7.25 1.08 6.10L1.08 6.10L1.08 6.10Q1.37 5.42 2.28 4.63L2.28 4.63L2.28 4.63Q3.19 3.84 4.38 3.68L4.38 3.68L4.38 3.68Q5.10 3.58 6.02 3.58L6.02 3.58L6.02 3.58Q7.83 3.58 8.57 3.99L8.57 3.99L8.72 4.14L8.72 4.14Q8.72 4.84 8.60 6.61L8.60 6.61L8.11 6.61L8.11 6.61Q8.06 6.44 7.95 6.06L7.95 6.06L7.95 6.06Q7.83 5.68 7.74 5.39L7.74 5.39L7.74 5.39Q7.64 5.10 7.64 5.08L7.64 5.08L7.64 5.08Q7.56 4.82 7.42 4.72L7.42 4.72L7.42 4.72Q6.40 4.45 5.33 4.45L5.33 4.45L5.33 4.45Q3.33 4.45 2.66 5.44L2.66 5.44L2.66 5.44Q1.99 6.43 1.99 9.04L1.99 9.04L1.99 9.04Q1.99 11.97 3.85 13.10L3.85 13.10L3.85 13.10Q4.65 13.58 5.61 13.58L5.61 13.58L5.61 13.58Q6.73 13.58 7.67 12.87L7.67 12.87L7.67 12.87Q7.81 12.61 8.08 11.62L8.08 11.62L8.27 10.86L8.79 10.86L8.79 10.86Q8.74 11.44 8.74 13.65L8.74 13.65L8.74 13.65Q6.85 14.35 5.26 14.35L5.26 14.35L5.26 14.35Q4.21 14.35 3.40 14.08L3.40 14.08L3.40 14.08Q2.59 13.82 1.94 13.22L1.94 13.22L1.94 13.22Q1.29 12.63 0.94 11.56L0.94 11.56L0.94 11.56Q0.59 10.49 0.59 8.99ZM13.72 14.11L9.80 14.11L9.80 13.64L9.80 13.64Q10.14 13.59 10.25 13.59L10.25 13.59L10.25 13.59Q10.36 13.58 10.54 13.50L10.54 13.50L10.54 13.50Q10.71 13.43 10.74 13.36L10.74 13.36L10.74 13.36Q10.77 13.30 10.82 13.09L10.82 13.09L10.82 13.09Q10.88 12.88 10.88 12.67L10.88 12.67L10.88 12.67Q10.88 12.46 10.88 12.03L10.88 12.03L10.88 11.56L10.88 11.56Q10.88 8.75 10.78 8.26L10.78 8.26L10.78 8.26Q10.68 7.77 10.11 7.73L10.11 7.73L10.11 7.73Q10.02 7.71 9.97 7.71L9.97 7.71L9.94 7.18L9.94 7.18Q10.50 7.13 11.09 6.92L11.09 6.92L11.09 6.92Q11.68 6.71 11.83 6.71L11.83 6.71L11.83 6.71Q12.01 6.71 12.08 6.87L12.08 6.87L12.08 6.87Q12.15 7.03 12.15 7.45L12.15 7.45L12.17 7.98L12.17 7.98Q13.40 6.79 14.11 6.79L14.11 6.79L14.11 6.79Q14.63 6.79 14.83 6.92L14.83 6.92L14.83 6.92Q15.02 7.04 15.02 7.38L15.02 7.38L15.02 7.38Q15.02 7.49 14.80 8.89L14.80 8.89L14.29 8.89L14.29 8.89Q14.22 7.84 13.58 7.84L13.58 7.84L13.58 7.84Q13.22 7.84 12.69 8.17L12.69 8.17L12.69 8.17Q12.17 8.50 12.17 9.04L12.17 9.04L12.17 9.04Q12.17 9.44 12.16 11.01L12.16 11.01L12.16 11.01Q12.15 12.59 12.15 12.84L12.15 12.84L12.15 12.84Q12.15 13.27 12.40 13.40L12.40 13.40L12.40 13.40Q12.66 13.54 13.58 13.66L13.58 13.66L13.58 13.66Q13.68 13.68 13.72 13.68L13.72 13.68L13.72 14.11ZM16.27 4.80L16.27 4.80L16.27 4.80Q16.27 4.63 16.50 4.21L16.50 4.21L16.50 4.21Q16.73 3.79 17.02 3.79L17.02 3.79L17.02 3.79Q17.23 3.79 17.54 4.05L17.54 4.05L17.54 4.05Q17.85 4.31 17.85 4.65L17.85 4.65L17.85 4.65Q17.85 4.98 17.56 5.31L17.56 5.31L17.56 5.31Q17.28 5.64 17.02 5.64L17.02 5.64L17.02 5.64Q16.83 5.64 16.55 5.30L16.55 5.30L16.55 5.30Q16.27 4.96 16.27 4.80ZM18.69 14.11L15.44 14.11L15.44 13.64L15.44 13.64Q16.16 13.58 16.34 13.45L16.34 13.45L16.34 13.45Q16.52 13.31 16.52 12.89L16.52 12.89L16.52 9.98L16.52 9.98Q16.52 8.76 16.46 8.29L16.46 8.29L16.46 8.29Q16.39 7.81 16.25 7.68L16.25 7.68L16.25 7.68Q16.11 7.55 15.72 7.55L15.72 7.55L15.51 7.55L15.48 7.08L15.48 7.08Q16.09 7.03 16.58 6.94L16.58 6.94L16.58 6.94Q17.07 6.86 17.30 6.80L17.30 6.80L17.30 6.80Q17.54 6.75 17.58 6.75L17.58 6.75L17.58 6.75Q17.82 6.75 17.82 6.97L17.82 6.97L17.82 6.97Q17.82 7.14 17.81 7.89L17.81 7.89L17.81 7.89Q17.79 8.64 17.77 10.01L17.77 10.01L17.77 10.01Q17.75 11.38 17.75 13.06L17.75 13.06L17.75 13.06Q17.75 13.34 17.98 13.47L17.98 13.47L17.98 13.47Q18.20 13.61 18.69 13.64L18.69 13.64L18.69 14.11ZM19.60 9.10L19.60 9.10L19.60 9.10Q19.60 8.43 19.84 8.06L19.84 8.06L19.84 8.06Q20.34 7.25 20.79 7.01L20.79 7.01L20.79 7.01Q21.24 6.76 22.12 6.76L22.12 6.76L22.12 6.76Q22.64 6.76 23.20 7L23.20 7L23.20 7Q23.35 7.06 23.43 7.10L23.43 7.10L23.43 7.10Q23.51 7.15 23.59 7.30L23.59 7.30L23.59 7.30Q23.67 7.45 23.67 7.69L23.67 7.69L23.67 7.69Q23.67 7.73 23.66 7.90L23.66 7.90L23.66 7.90Q23.65 8.08 23.64 8.39L23.64 8.39L23.64 8.39Q23.63 8.69 23.63 9.06L23.63 9.06L23.11 9.06L23.11 9.06Q23.10 8.88 23.00 8.53L23.00 8.53L23.00 8.53Q22.89 8.18 22.76 7.99L22.76 7.99L22.76 7.99Q22.48 7.59 21.71 7.59L21.71 7.59L21.71 7.59Q21.34 7.59 21.08 7.69L21.08 7.69L21.08 7.69Q20.83 7.80 20.73 7.96L20.73 7.96L20.73 7.96Q20.62 8.12 20.58 8.25L20.58 8.25L20.58 8.25Q20.54 8.39 20.54 8.51L20.54 8.51L20.54 8.51Q20.54 8.96 20.89 9.23L20.89 9.23L20.89 9.23Q21.24 9.51 21.74 9.67L21.74 9.67L21.74 9.67Q22.25 9.84 22.76 10.04L22.76 10.04L22.76 10.04Q23.27 10.25 23.62 10.72L23.62 10.72L23.62 10.72Q23.97 11.19 23.97 11.90L23.97 11.90L23.97 11.90Q23.97 12.64 23.76 12.99L23.76 12.99L23.76 12.99Q23.38 13.59 22.86 14L22.86 14L22.86 14Q22.65 14.15 22.20 14.25L22.20 14.25L22.20 14.25Q21.76 14.35 21.53 14.35L21.53 14.35L21.53 14.35Q20.03 14.35 19.74 13.85L19.74 13.85L19.74 13.85Q19.63 13.66 19.63 13.37L19.63 13.37L19.63 13.37Q19.63 12.24 19.69 11.98L19.69 11.98L19.69 11.98Q19.75 11.72 20.01 11.72L20.01 11.72L20.01 11.72Q20.22 11.72 20.27 11.91L20.27 11.91L20.27 11.91Q20.33 12.11 20.38 12.45L20.38 12.45L20.38 12.45Q20.43 12.80 20.58 13.01L20.58 13.01L20.58 13.01Q20.90 13.45 21.74 13.45L21.74 13.45L21.74 13.45Q22.36 13.45 22.71 13.17L22.71 13.17L22.71 13.17Q23.06 12.89 23.06 12.40L23.06 12.40L23.06 12.40Q23.06 11.93 22.70 11.65L22.70 11.65L22.70 11.65Q22.34 11.37 21.83 11.21L21.83 11.21L21.83 11.21Q21.32 11.05 20.82 10.86L20.82 10.86L20.82 10.86Q20.31 10.67 19.96 10.23L19.96 10.23L19.96 10.23Q19.60 9.80 19.60 9.10ZM25.75 7.84L24.53 7.84L24.53 7.42L25.75 7.18L25.75 5.89L25.75 5.89Q26.56 5.66 26.78 5.57L26.78 5.57L26.78 5.57Q26.81 5.56 26.82 5.56L26.82 5.56L26.82 5.56Q27.03 5.56 27.03 5.77L27.03 5.77L27.03 5.77Q27.03 5.82 27.02 6.10L27.02 6.10L27.02 6.10Q27.01 6.38 27.01 6.62L27.01 6.62L27.01 7.06L28.78 7.06L28.74 7.84L27.01 7.84L27.01 7.84Q27.01 8.62 26.99 9.77L26.99 9.77L26.99 9.77Q26.96 10.92 26.96 11.30L26.96 11.30L26.96 11.30Q26.96 12.38 27.10 12.85L27.10 12.85L27.10 12.85Q27.23 13.33 27.62 13.33L27.62 13.33L27.62 13.33Q27.96 13.33 28.64 12.92L28.64 12.92L28.94 13.20L28.94 13.20Q27.86 14.32 27.17 14.32L27.17 14.32L27.17 14.32Q26.26 14.32 25.98 13.71L25.98 13.71L25.98 13.71Q25.70 13.09 25.70 11.48L25.70 11.48L25.70 11.48Q25.70 11.07 25.73 9.86L25.73 9.86L25.73 9.86Q25.75 8.65 25.75 7.84L25.75 7.84ZM30.32 4.80L30.32 4.80L30.32 4.80Q30.32 4.63 30.56 4.21L30.56 4.21L30.56 4.21Q30.79 3.79 31.08 3.79L31.08 3.79L31.08 3.79Q31.29 3.79 31.60 4.05L31.60 4.05L31.60 4.05Q31.91 4.31 31.91 4.65L31.91 4.65L31.91 4.65Q31.91 4.98 31.62 5.31L31.62 5.31L31.62 5.31Q31.33 5.64 31.08 5.64L31.08 5.64L31.08 5.64Q30.88 5.64 30.60 5.30L30.60 5.30L30.60 5.30Q30.32 4.96 30.32 4.80ZM32.75 14.11L29.50 14.11L29.50 13.64L29.50 13.64Q30.21 13.58 30.39 13.45L30.39 13.45L30.39 13.45Q30.58 13.31 30.58 12.89L30.58 12.89L30.58 9.98L30.58 9.98Q30.58 8.76 30.51 8.29L30.51 8.29L30.51 8.29Q30.45 7.81 30.31 7.68L30.31 7.68L30.31 7.68Q30.17 7.55 29.78 7.55L29.78 7.55L29.57 7.55L29.54 7.08L29.54 7.08Q30.14 7.03 30.63 6.94L30.63 6.94L30.63 6.94Q31.12 6.86 31.36 6.80L31.36 6.80L31.36 6.80Q31.60 6.75 31.64 6.75L31.64 6.75L31.64 6.75Q31.88 6.75 31.88 6.97L31.88 6.97L31.88 6.97Q31.88 7.14 31.86 7.89L31.86 7.89L31.86 7.89Q31.85 8.64 31.83 10.01L31.83 10.01L31.83 10.01Q31.81 11.38 31.81 13.06L31.81 13.06L31.81 13.06Q31.81 13.34 32.03 13.47L32.03 13.47L32.03 13.47Q32.26 13.61 32.75 13.64L32.75 13.64L32.75 14.11ZM33.59 12.42L33.59 12.42L33.59 12.42Q33.59 11.93 33.68 11.55L33.68 11.55L33.68 11.55Q33.78 11.17 34.01 10.92L34.01 10.92L34.01 10.92Q34.23 10.67 34.45 10.50L34.45 10.50L34.45 10.50Q34.68 10.33 35.09 10.21L35.09 10.21L35.09 10.21Q35.50 10.09 35.81 10.03L35.81 10.03L35.81 10.03Q36.11 9.97 36.65 9.86L36.65 9.86L36.65 9.86Q37.20 9.76 37.53 9.69L37.53 9.69L37.53 9.69Q37.53 9.49 37.54 9.20L37.54 9.20L37.54 9.20Q37.55 8.90 37.55 8.85L37.55 8.85L37.55 8.85Q37.55 8.20 37.09 7.92L37.09 7.92L37.09 7.92Q36.62 7.64 36.02 7.64L36.02 7.64L36.02 7.64Q35.32 7.64 35.07 7.97L35.07 7.97L35.07 7.97Q34.82 8.30 34.52 9.38L34.52 9.38L33.95 9.32L33.95 9.32Q33.95 9.28 33.96 9.04L33.96 9.04L33.96 9.04Q33.96 8.79 34.00 8.60L34.00 8.60L34.00 8.60Q34.03 8.41 34.11 8.12L34.11 8.12L34.11 8.12Q34.19 7.83 34.38 7.61L34.38 7.61L34.38 7.61Q34.57 7.39 34.85 7.18L34.85 7.18L34.85 7.18Q35.13 6.97 35.59 6.86L35.59 6.86L35.59 6.86Q36.05 6.75 36.65 6.75L36.65 6.75L36.65 6.75Q37.27 6.75 37.70 6.89L37.70 6.89L37.70 6.89Q38.14 7.03 38.35 7.20L38.35 7.20L38.35 7.20Q38.57 7.38 38.69 7.68L38.69 7.68L38.69 7.68Q38.81 7.98 38.82 8.16L38.82 8.16L38.82 8.16Q38.84 8.34 38.84 8.62L38.84 8.62L38.84 8.62Q38.84 9.69 38.81 10.90L38.81 10.90L38.81 10.90Q38.78 12.11 38.78 12.32L38.78 12.32L38.78 12.32Q38.78 12.67 39.10 13.17L39.10 13.17L39.10 13.17Q39.41 13.66 39.41 13.75L39.41 13.75L39.41 13.75Q39.41 13.82 39.28 13.86L39.28 13.86L39.28 13.86Q38.30 14.18 38.21 14.18L38.21 14.18L38.21 14.18Q38.07 14.18 37.95 13.98L37.95 13.98L37.95 13.98Q37.83 13.78 37.73 13.48L37.73 13.48L37.73 13.48Q37.63 13.19 37.62 13.17L37.62 13.17L37.62 13.17Q37.41 13.31 37.10 13.52L37.10 13.52L37.10 13.52Q36.79 13.73 36.67 13.81L36.67 13.81L36.67 13.81Q36.55 13.89 36.34 14L36.34 14L36.34 14Q36.12 14.11 35.95 14.15L35.95 14.15L35.95 14.15Q35.78 14.20 35.53 14.22L35.53 14.22L35.53 14.22Q35.28 14.25 34.96 14.25L34.96 14.25L34.96 14.25Q34.23 14.25 33.91 13.72L33.91 13.72L33.91 13.72Q33.59 13.19 33.59 12.42ZM34.85 12.28L34.85 12.28L34.85 12.28Q34.85 13.31 35.78 13.31L35.78 13.31L35.78 13.31Q36.61 13.31 37.45 12.61L37.45 12.61L37.45 12.61Q37.55 12.53 37.55 11.42L37.55 11.42L37.55 11.42Q37.55 10.65 37.53 10.23L37.53 10.23L37.53 10.23Q37.28 10.32 36.90 10.44L36.90 10.44L36.90 10.44Q36.51 10.57 36.35 10.63L36.35 10.63L36.35 10.63Q36.19 10.68 35.92 10.77L35.92 10.77L35.92 10.77Q35.66 10.86 35.57 10.92L35.57 10.92L35.57 10.92Q35.48 10.98 35.32 11.06L35.32 11.06L35.32 11.06Q35.15 11.14 35.11 11.22L35.11 11.22L35.11 11.22Q35.07 11.30 34.99 11.40L34.99 11.40L34.99 11.40Q34.90 11.51 34.89 11.64L34.89 11.64L34.89 11.64Q34.87 11.77 34.86 11.92L34.86 11.92L34.86 11.92Q34.85 12.07 34.85 12.28ZM40.21 7.74L40.17 7.21L40.17 7.21Q40.74 7.15 41.32 6.94L41.32 6.94L41.32 6.94Q41.90 6.73 42.06 6.73L42.06 6.73L42.06 6.73Q42.25 6.73 42.32 6.89L42.32 6.89L42.32 6.89Q42.39 7.06 42.39 7.48L42.39 7.48L42.39 7.67L42.39 7.67Q44.00 6.76 45.02 6.76L45.02 6.76L45.02 6.76Q45.84 6.76 46.19 7.26L46.19 7.26L46.19 7.26Q46.54 7.76 46.54 8.40L46.54 8.40L46.54 13.08L46.54 13.08Q46.54 13.38 46.67 13.50L46.67 13.50L46.67 13.50Q46.80 13.61 47.28 13.64L47.28 13.64L47.28 14.11L44.42 14.11L44.42 13.64L44.42 13.64Q44.95 13.59 45.09 13.47L45.09 13.47L45.09 13.47Q45.22 13.34 45.22 13.02L45.22 13.02L45.22 8.58L45.22 8.58Q45.22 8.23 45.00 8.04L45.00 8.04L45.00 8.04Q44.79 7.85 44.56 7.82L44.56 7.82L44.56 7.82Q44.32 7.78 43.99 7.78L43.99 7.78L43.99 7.78Q43.72 7.78 43.22 7.95L43.22 7.95L43.22 7.95Q42.71 8.11 42.43 8.30L42.43 8.30L42.43 8.30Q42.42 9.13 42.39 10.03L42.39 10.03L42.39 10.03Q42.36 10.93 42.35 11.49L42.35 11.49L42.35 11.49Q42.34 12.04 42.34 12.38L42.34 12.38L42.34 12.38Q42.34 13.23 42.48 13.42L42.48 13.42L42.48 13.42Q42.62 13.61 43.16 13.64L43.16 13.64L43.16 14.11L40.22 14.11L40.22 13.64L40.22 13.64Q40.52 13.59 40.64 13.55L40.64 13.55L40.64 13.55Q40.75 13.51 40.87 13.44L40.87 13.44L40.87 13.44Q40.99 13.37 41.03 13.17L41.03 13.17L41.03 13.17Q41.06 12.96 41.08 12.73L41.08 12.73L41.08 12.73Q41.09 12.50 41.09 12.01L41.09 12.01L41.09 12.01Q41.09 11.83 41.05 10.04L41.05 10.04L41.05 10.04Q41.01 8.26 40.99 8.20L40.99 8.20L40.99 8.20Q40.98 8.13 40.96 8.07L40.96 8.07L40.96 8.07Q40.94 8.01 40.90 7.97L40.90 7.97L40.90 7.97Q40.87 7.92 40.85 7.90L40.85 7.90L40.85 7.90Q40.82 7.87 40.77 7.84L40.77 7.84L40.77 7.84Q40.71 7.81 40.68 7.80L40.68 7.80L40.68 7.80Q40.66 7.80 40.58 7.78L40.58 7.78L40.58 7.78Q40.50 7.77 40.47 7.76L40.47 7.76L40.47 7.76Q40.45 7.76 40.35 7.75L40.35 7.75L40.35 7.75Q40.25 7.74 40.21 7.74L40.21 7.74ZM48.02 10.47L48.02 10.47L48.02 10.47Q48.02 9.24 48.59 8.30L48.59 8.30L48.59 8.30Q48.97 7.71 49.91 7.23L49.91 7.23L49.91 7.23Q50.85 6.75 51.46 6.75L51.46 6.75L51.46 6.75Q52.71 6.75 53.59 7.55L53.59 7.55L53.59 7.55Q54.47 8.34 54.47 10.00L54.47 10.00L54.47 10.00Q54.47 11.72 53.86 12.66L53.86 12.66L53.86 12.66Q53.03 13.76 52.25 14.11L52.25 14.11L52.25 14.11Q51.72 14.35 50.97 14.35L50.97 14.35L50.97 14.35Q50.57 14.35 50.20 14.27L50.20 14.27L50.20 14.27Q49.84 14.20 49.43 13.94L49.43 13.94L49.43 13.94Q49.01 13.69 48.71 13.29L48.71 13.29L48.71 13.29Q48.41 12.88 48.22 12.16L48.22 12.16L48.22 12.16Q48.02 11.44 48.02 10.47ZM49.35 10.36L49.35 10.36L49.35 10.36Q49.35 12.04 49.93 12.70L49.93 12.70L49.93 12.70Q50.51 13.36 51.62 13.36L51.62 13.36L51.62 13.36Q52.04 13.36 52.23 13.29L52.23 13.29L52.23 13.29Q53.20 12.91 53.20 10.37L53.20 10.37L53.20 10.37Q53.20 9.18 52.89 8.63L52.89 8.63L52.89 8.63Q52.57 8.08 51.80 7.84L51.80 7.84L51.80 7.84Q51.41 7.74 51.04 7.74L51.04 7.74L51.04 7.74Q50.76 7.74 50.62 7.76L50.62 7.76L50.62 7.76Q50.47 7.77 50.23 7.84L50.23 7.84L50.23 7.84Q49.99 7.91 49.87 8.07L49.87 8.07L49.87 8.07Q49.74 8.23 49.60 8.51L49.60 8.51L49.60 8.51Q49.46 8.79 49.41 9.26L49.41 9.26L49.41 9.26Q49.35 9.73 49.35 10.36ZM55.43 8.99L55.43 8.99L55.43 8.99Q55.43 7.25 55.92 6.10L55.92 6.10L55.92 6.10Q56.21 5.42 57.12 4.63L57.12 4.63L57.12 4.63Q58.03 3.84 59.22 3.68L59.22 3.68L59.22 3.68Q59.93 3.58 60.86 3.58L60.86 3.58L60.86 3.58Q62.66 3.58 63.41 3.99L63.41 3.99L63.56 4.14L63.56 4.14Q63.56 4.84 63.43 6.61L63.43 6.61L62.94 6.61L62.94 6.61Q62.90 6.44 62.78 6.06L62.78 6.06L62.78 6.06Q62.66 5.68 62.57 5.39L62.57 5.39L62.57 5.39Q62.48 5.10 62.48 5.08L62.48 5.08L62.48 5.08Q62.40 4.82 62.26 4.72L62.26 4.72L62.26 4.72Q61.24 4.45 60.17 4.45L60.17 4.45L60.17 4.45Q58.17 4.45 57.50 5.44L57.50 5.44L57.50 5.44Q56.83 6.43 56.83 9.04L56.83 9.04L56.83 9.04Q56.83 11.97 58.69 13.10L58.69 13.10L58.69 13.10Q59.49 13.58 60.45 13.58L60.45 13.58L60.45 13.58Q61.57 13.58 62.51 12.87L62.51 12.87L62.51 12.87Q62.65 12.61 62.92 11.62L62.92 11.62L63.11 10.86L63.63 10.86L63.63 10.86Q63.57 11.44 63.57 13.65L63.57 13.65L63.57 13.65Q61.68 14.35 60.10 14.35L60.10 14.35L60.10 14.35Q59.05 14.35 58.24 14.08L58.24 14.08L58.24 14.08Q57.43 13.82 56.78 13.22L56.78 13.22L56.78 13.22Q56.13 12.63 55.78 11.56L55.78 11.56L55.78 11.56Q55.43 10.49 55.43 8.99ZM64.71 10.47L64.71 10.47L64.71 10.47Q64.71 9.24 65.28 8.30L65.28 8.30L65.28 8.30Q65.66 7.71 66.60 7.23L66.60 7.23L66.60 7.23Q67.54 6.75 68.15 6.75L68.15 6.75L68.15 6.75Q69.40 6.75 70.28 7.55L70.28 7.55L70.28 7.55Q71.16 8.34 71.16 10.00L71.16 10.00L71.16 10.00Q71.16 11.72 70.55 12.66L70.55 12.66L70.55 12.66Q69.72 13.76 68.94 14.11L68.94 14.11L68.94 14.11Q68.40 14.35 67.66 14.35L67.66 14.35L67.66 14.35Q67.26 14.35 66.89 14.27L66.89 14.27L66.89 14.27Q66.53 14.20 66.11 13.94L66.11 13.94L66.11 13.94Q65.70 13.69 65.40 13.29L65.40 13.29L65.40 13.29Q65.10 12.88 64.90 12.16L64.90 12.16L64.90 12.16Q64.71 11.44 64.71 10.47ZM66.04 10.36L66.04 10.36L66.04 10.36Q66.04 12.04 66.62 12.70L66.62 12.70L66.62 12.70Q67.20 13.36 68.31 13.36L68.31 13.36L68.31 13.36Q68.73 13.36 68.92 13.29L68.92 13.29L68.92 13.29Q69.89 12.91 69.89 10.37L69.89 10.37L69.89 10.37Q69.89 9.18 69.57 8.63L69.57 8.63L69.57 8.63Q69.26 8.08 68.49 7.84L68.49 7.84L68.49 7.84Q68.10 7.74 67.73 7.74L67.73 7.74L67.73 7.74Q67.45 7.74 67.30 7.76L67.30 7.76L67.30 7.76Q67.16 7.77 66.92 7.84L66.92 7.84L66.92 7.84Q66.68 7.91 66.56 8.07L66.56 8.07L66.56 8.07Q66.43 8.23 66.29 8.51L66.29 8.51L66.29 8.51Q66.15 8.79 66.09 9.26L66.09 9.26L66.09 9.26Q66.04 9.73 66.04 10.36ZM71.95 10.72L71.95 10.72L71.95 10.72Q71.95 9.95 72.03 9.38L72.03 9.38L72.03 9.38Q72.11 8.81 72.21 8.49L72.21 8.49L72.21 8.49Q72.31 8.18 72.51 7.92L72.51 7.92L72.51 7.92Q72.72 7.67 72.82 7.59L72.82 7.59L72.82 7.59Q72.93 7.50 73.16 7.36L73.16 7.36L73.64 7.08L73.64 7.08Q74.24 6.72 75.04 6.72L75.04 6.72L75.04 6.72Q75.68 6.72 76.52 6.92L76.52 6.92L76.52 6.92Q76.52 6.38 76.51 5.69L76.51 5.69L76.51 5.69Q76.50 5.00 76.50 4.82L76.50 4.82L76.50 4.82Q76.50 4.37 76.49 4.19L76.49 4.19L76.49 4.19Q76.48 4.02 76.35 3.89L76.35 3.89L76.35 3.89Q76.22 3.77 76.08 3.76L76.08 3.76L76.08 3.76Q75.95 3.75 75.52 3.74L75.52 3.74L75.49 3.28L75.49 3.28Q76.09 3.22 76.59 3.14L76.59 3.14L76.59 3.14Q77.08 3.05 77.32 3.00L77.32 3.00L77.32 3.00Q77.56 2.94 77.60 2.94L77.60 2.94L77.60 2.94Q77.84 2.94 77.84 3.16L77.84 3.16L77.84 3.16Q77.84 6.17 77.79 8.94L77.79 8.94L77.79 8.94Q77.74 11.70 77.74 12.31L77.74 12.31L77.74 12.31Q77.74 12.67 78.10 13.20L78.10 13.20L78.10 13.20Q78.46 13.73 78.46 13.75L78.46 13.75L78.46 13.75Q78.46 13.79 78.34 13.84L78.34 13.84L78.34 13.84Q78.22 13.89 78.04 13.94L78.04 13.94L78.04 13.94Q77.85 14 77.83 14.01L77.83 14.01L77.83 14.01Q77.28 14.25 77.17 14.25L77.17 14.25L77.17 14.25Q77.06 14.25 76.94 14.02L76.94 14.02L76.94 14.02Q76.83 13.79 76.73 13.51L76.73 13.51L76.73 13.51Q76.62 13.23 76.55 13.16L76.55 13.16L76.55 13.16Q75.50 14.32 74.69 14.32L74.69 14.32L74.69 14.32Q74.38 14.32 73.95 14.13L73.95 14.13L73.95 14.13Q73.53 13.94 73.06 13.56L73.06 13.56L73.06 13.56Q72.59 13.17 72.27 12.43L72.27 12.43L72.27 12.43Q71.95 11.69 71.95 10.72ZM73.18 10.19L73.18 10.19L73.18 10.19Q73.18 11.65 73.73 12.38L73.73 12.38L73.73 12.38Q74.28 13.12 75.10 13.12L75.10 13.12L75.10 13.12Q75.88 13.12 76.54 12.49L76.54 12.49L76.54 12.49Q76.54 10.04 76.52 9.01L76.52 9.01L76.52 9.01Q76.50 7.98 76.50 7.92L76.50 7.92L76.50 7.92Q75.84 7.53 74.84 7.53L74.84 7.53L74.84 7.53Q74.42 7.53 74.16 7.61L74.16 7.61L74.16 7.61Q73.91 7.69 73.65 7.95L73.65 7.95L73.65 7.95Q73.40 8.20 73.29 8.76L73.29 8.76L73.29 8.76Q73.18 9.31 73.18 10.19ZM79.32 10.67L79.32 10.67L79.32 10.67Q79.32 9.25 79.63 8.53L79.63 8.53L79.63 8.53Q79.86 8.01 80.71 7.40L80.71 7.40L80.71 7.40Q81.56 6.79 82.31 6.79L82.31 6.79L82.31 6.79Q82.95 6.79 83.44 6.94L83.44 6.94L83.44 6.94Q83.93 7.10 84.21 7.40L84.21 7.40L84.21 7.40Q84.49 7.70 84.66 7.99L84.66 7.99L84.66 7.99Q84.84 8.27 84.90 8.70L84.90 8.70L84.90 8.70Q84.97 9.13 84.99 9.38L84.99 9.38L84.99 9.38Q85.01 9.63 85.01 10.00L85.01 10.00L85.01 10.00Q85.01 10.12 85.01 10.18L85.01 10.18L85.01 10.18Q84.56 10.46 83.54 10.46L83.54 10.46L80.67 10.46L80.67 10.46Q80.67 10.91 80.68 11.15L80.68 11.15L80.68 11.15Q80.70 11.40 80.74 11.78L80.74 11.78L80.74 11.78Q80.78 12.17 80.90 12.38L80.90 12.38L80.90 12.38Q81.02 12.60 81.21 12.82L81.21 12.82L81.21 12.82Q81.41 13.05 81.73 13.15L81.73 13.15L81.73 13.15Q82.05 13.24 82.49 13.24L82.49 13.24L82.49 13.24Q83.71 13.24 84.71 12.25L84.71 12.25L85.02 12.57L85.02 12.57Q84.97 12.63 84.76 12.85L84.76 12.85L84.76 12.85Q84.55 13.06 84.48 13.13L84.48 13.13L84.48 13.13Q84.41 13.20 84.21 13.39L84.21 13.39L84.21 13.39Q84.01 13.58 83.91 13.65L83.91 13.65L83.91 13.65Q83.80 13.72 83.61 13.86L83.61 13.86L83.61 13.86Q83.43 14 83.29 14.06L83.29 14.06L83.29 14.06Q83.16 14.11 82.97 14.19L82.97 14.19L82.97 14.19Q82.78 14.27 82.59 14.29L82.59 14.29L82.59 14.29Q82.40 14.32 82.21 14.32L82.21 14.32L82.21 14.32Q81.37 14.32 80.77 13.99L80.77 13.99L80.77 13.99Q80.18 13.66 79.88 13.10L79.88 13.10L79.88 13.10Q79.58 12.54 79.45 11.95L79.45 11.95L79.45 11.95Q79.32 11.35 79.32 10.67ZM80.70 9.83L80.70 9.83L81.49 9.83L81.49 9.83Q83.36 9.83 83.71 9.58L83.71 9.58L83.71 9.58Q83.71 9.28 83.65 9.00L83.65 9.00L83.65 9.00Q83.59 8.72 83.45 8.41L83.45 8.41L83.45 8.41Q83.31 8.09 83.01 7.90L83.01 7.90L83.01 7.90Q82.70 7.70 82.25 7.70L82.25 7.70L82.25 7.70Q81.30 7.70 81.00 8.17L81.00 8.17L81.00 8.17Q80.70 8.64 80.70 9.83ZM86.07 9.10L86.07 9.10L86.07 9.10Q86.07 8.43 86.31 8.06L86.31 8.06L86.31 8.06Q86.81 7.25 87.26 7.01L87.26 7.01L87.26 7.01Q87.71 6.76 88.59 6.76L88.59 6.76L88.59 6.76Q89.11 6.76 89.67 7L89.67 7L89.67 7Q89.82 7.06 89.90 7.10L89.90 7.10L89.90 7.10Q89.98 7.15 90.06 7.30L90.06 7.30L90.06 7.30Q90.15 7.45 90.15 7.69L90.15 7.69L90.15 7.69Q90.15 7.73 90.13 7.90L90.13 7.90L90.13 7.90Q90.12 8.08 90.11 8.39L90.11 8.39L90.11 8.39Q90.10 8.69 90.10 9.06L90.10 9.06L89.59 9.06L89.59 9.06Q89.57 8.88 89.47 8.53L89.47 8.53L89.47 8.53Q89.36 8.18 89.24 7.99L89.24 7.99L89.24 7.99Q88.96 7.59 88.19 7.59L88.19 7.59L88.19 7.59Q87.81 7.59 87.56 7.69L87.56 7.69L87.56 7.69Q87.30 7.80 87.20 7.96L87.20 7.96L87.20 7.96Q87.09 8.12 87.05 8.25L87.05 8.25L87.05 8.25Q87.01 8.39 87.01 8.51L87.01 8.51L87.01 8.51Q87.01 8.96 87.36 9.23L87.36 9.23L87.36 9.23Q87.71 9.51 88.21 9.67L88.21 9.67L88.21 9.67Q88.72 9.84 89.23 10.04L89.23 10.04L89.23 10.04Q89.74 10.25 90.09 10.72L90.09 10.72L90.09 10.72Q90.44 11.19 90.44 11.90L90.44 11.90L90.44 11.90Q90.44 12.64 90.23 12.99L90.23 12.99L90.23 12.99Q89.85 13.59 89.33 14L89.33 14L89.33 14Q89.12 14.15 88.68 14.25L88.68 14.25L88.68 14.25Q88.23 14.35 88.00 14.35L88.00 14.35L88.00 14.35Q86.51 14.35 86.21 13.85L86.21 13.85L86.21 13.85Q86.10 13.66 86.10 13.37L86.10 13.37L86.10 13.37Q86.10 12.24 86.16 11.98L86.16 11.98L86.16 11.98Q86.23 11.72 86.48 11.72L86.48 11.72L86.48 11.72Q86.69 11.72 86.74 11.91L86.74 11.91L86.74 11.91Q86.80 12.11 86.85 12.45L86.85 12.45L86.85 12.45Q86.90 12.80 87.05 13.01L87.05 13.01L87.05 13.01Q87.37 13.45 88.21 13.45L88.21 13.45L88.21 13.45Q88.83 13.45 89.18 13.17L89.18 13.17L89.18 13.17Q89.53 12.89 89.53 12.40L89.53 12.40L89.53 12.40Q89.53 11.93 89.17 11.65L89.17 11.65L89.17 11.65Q88.82 11.37 88.30 11.21L88.30 11.21L88.30 11.21Q87.79 11.05 87.29 10.86L87.29 10.86L87.29 10.86Q86.79 10.67 86.43 10.23L86.43 10.23L86.43 10.23Q86.07 9.80 86.07 9.10Z"></path></g><defs data-v-fde0c5aa=""><linearGradient data-v-fde0c5aa="" gradientTransform="rotate(25)" id="2018a5ba-db97-4cd3-9ee1-d8411b667fc4" x1="0%" y1="0%" x2="100%" y2="0%"><stop data-v-fde0c5aa="" offset="0%" stop-color="#0076DD" stop-opacity="1"></stop><stop data-v-fde0c5aa="" offset="100%" stop-color="#E600E9" stop-opacity="1"></stop></linearGradient></defs><g data-v-fde0c5aa="" id="86df0553-60d5-4b3c-9360-047ef7883150" stroke="none" fill="url(#2018a5ba-db97-4cd3-9ee1-d8411b667fc4)" transform="matrix(0.6252186508683045,0,0,0.6252186508683045,36.873605636898894,118.73990817609173)"><path d="M75.195 72.96a2.716 2.716 0 0 1-2.074-4.467L88.73 50 73.122 31.507a2.716 2.716 0 0 1 4.151-3.504L94.36 48.248a2.715 2.715 0 0 1 0 3.503L77.272 71.995a2.708 2.708 0 0 1-2.077.965zM24.805 72.96a2.71 2.71 0 0 1-2.076-.964L5.641 51.752a2.715 2.715 0 0 1 0-3.503l17.088-20.245a2.716 2.716 0 0 1 4.151 3.503L11.269 50.001l15.609 18.492a2.716 2.716 0 0 1-2.073 4.467zM37.325 72.96a2.715 2.715 0 0 1-2.299-4.156L60.37 28.315a2.715 2.715 0 1 1 4.604 2.881L39.63 71.685a2.714 2.714 0 0 1-2.305 1.275z"></path></g><!----></svg>